<svg width="571" height="142" viewBox="0 0 571 142" fill="none" xmlns="http://www.w3.org/2000/svg">
<path d="M91.0138 24.6629C98.0381 33.2195 106.367 40.568 115.799 46.6079C115.799 42.1786 115.799 37.6487 115.799 33.2195C110.381 28.6895 105.263 23.5556 100.747 18.1197C96.8339 13.3884 93.3218 8.35517 90.3114 3.01992C85.8962 2.2146 81.2803 1.50995 76.3633 1.00662C80.2768 9.46249 85.0934 17.415 91.0138 24.6629Z" fill="white"/>
<path d="M33.1142 30.1995C23.9827 41.3734 12.8443 50.5339 0 57.5804V64.627C10.2353 69.5596 24.2837 78.4181 36.526 93.3165C50.6747 110.631 56.5952 128.952 59.1038 141.636C59.5052 141.636 59.8062 141.636 60.2076 141.636C62.6159 128.952 68.5363 110.631 82.7855 93.3165C91.917 82.1427 103.055 73.0829 116 66.3383C116 63.117 116 59.8957 116 56.6744C103.758 49.7286 93.1211 40.87 84.391 30.1995C76.9654 21.1397 71.045 11.0732 66.7301 0.20133C63.7197 0.100665 60.5086 0 57.2976 0C55.09 0 52.8824 0.100665 50.7751 0.20133C46.4602 11.0732 40.5398 21.1397 33.1142 30.1995Z" fill="white"/>
<path d="M107.571 12.4825C110.18 15.6031 112.889 18.623 115.9 21.4417C115.9 17.4151 115.9 13.4891 115.9 9.46252C111.986 8.15387 107.471 6.74456 102.353 5.43591C103.958 7.95254 105.664 10.2678 107.571 12.4825Z" fill="white"/>
<path d="M115.699 87.8806C115.799 86.4713 115.9 84.9613 115.9 83.552C115.9 81.1361 115.9 78.7201 115.9 76.3041C105.765 82.2434 96.8339 89.7933 89.4083 98.8531C77.3668 113.55 71.8478 129.153 69.2388 140.528C72.9516 139.824 76.564 138.716 79.9758 137.307L80.3772 136.099C84.5917 124.623 90.5121 114.054 98.2388 104.692C103.356 98.5511 109.277 92.8132 115.699 87.8806Z" fill="white"/>
<path d="M29.8028 98.8531C19.9689 86.8739 8.93079 79.2234 0 74.3915V83.552C0 84.156 0 84.76 0 85.364C7.82699 90.9006 14.8512 97.4438 20.872 104.792C29 114.658 35.2215 125.831 39.3356 138.012L39.6367 138.817C42.9481 139.924 46.4602 140.73 50.0727 141.233C47.564 129.556 42.045 113.752 29.8028 98.8531Z" fill="white"/>
<path d="M9.93426 12.5831C11.9412 10.1672 13.7474 7.65054 15.5536 5.13391C9.63322 6.44256 4.41523 8.0532 0 9.56318V23.0523C3.61246 19.831 6.92388 16.3077 9.93426 12.5831Z" fill="white"/>
<path d="M14.2491 110.228C10.5363 105.598 6.32179 101.37 1.70587 97.5445C5.51902 112.745 15.2526 125.63 28.3979 133.482C24.7855 125.127 19.9688 117.375 14.2491 110.228Z" fill="white"/>
<path d="M103.156 110.228C106.868 105.598 111.083 101.37 115.699 97.5445C111.886 112.745 102.152 125.63 89.0069 133.482C92.6194 125.127 97.3356 117.375 103.156 110.228Z" fill="white"/>
<path d="M0 34.5281V47.6146C10.1349 41.474 18.9654 33.7228 26.4913 24.6629C32.4118 17.415 37.3287 9.36183 41.1419 0.805298C36.2249 1.30862 31.609 1.91261 27.2941 2.61727C24.1834 8.05318 20.5709 13.2878 16.6574 18.019C11.7405 24.0589 6.12111 29.5955 0 34.5281Z" fill="white"/>
<path d="M150.72 47.8899V74.7699C150.72 77.4579 151.381 79.5272 152.704 80.9779C154.027 82.4286 155.968 83.1539 158.528 83.1539C161.088 83.1539 163.051 82.4286 164.416 80.9779C165.781 79.5272 166.464 77.4579 166.464 74.7699V47.8899H177.408V74.7059C177.408 78.7166 176.555 82.1086 174.848 84.8819C173.141 87.6552 170.837 89.7459 167.936 91.1539C165.077 92.5619 161.877 93.2659 158.336 93.2659C154.795 93.2659 151.616 92.5832 148.8 91.2179C146.027 89.8099 143.829 87.7192 142.208 84.9459C140.587 82.1299 139.776 78.7166 139.776 74.7059V47.8899H150.72ZM196.037 63.0579C197.317 61.0952 198.917 59.5592 200.837 58.4499C202.757 57.2979 204.89 56.7219 207.237 56.7219V68.3059H204.229C201.498 68.3059 199.45 68.9032 198.085 70.0979C196.72 71.2499 196.037 73.2979 196.037 76.2419V92.8179H185.093V57.1059H196.037V63.0579ZM223.412 62.1619C224.436 60.4979 225.908 59.1539 227.828 58.1299C229.748 57.1059 231.945 56.5939 234.42 56.5939C237.364 56.5939 240.031 57.3406 242.42 58.8339C244.809 60.3272 246.687 62.4606 248.052 65.2339C249.46 68.0072 250.164 71.2286 250.164 74.8979C250.164 78.5672 249.46 81.8099 248.052 84.6259C246.687 87.3992 244.809 89.5539 242.42 91.0899C240.031 92.5832 237.364 93.3299 234.42 93.3299C231.903 93.3299 229.705 92.8392 227.828 91.8579C225.951 90.8339 224.479 89.4899 223.412 87.8259V92.8179H212.468V45.4579H223.412V62.1619ZM239.028 74.8979C239.028 72.1672 238.26 70.0339 236.724 68.4979C235.231 66.9192 233.375 66.1299 231.156 66.1299C228.98 66.1299 227.124 66.9192 225.588 68.4979C224.095 70.0766 223.348 72.2312 223.348 74.9619C223.348 77.6926 224.095 79.8472 225.588 81.4259C227.124 83.0046 228.98 83.7939 231.156 83.7939C233.332 83.7939 235.188 83.0046 236.724 81.4259C238.26 79.8046 239.028 77.6286 239.028 74.8979ZM253.73 74.8979C253.73 71.2286 254.412 68.0072 255.778 65.2339C257.186 62.4606 259.084 60.3272 261.474 58.8339C263.863 57.3406 266.53 56.5939 269.474 56.5939C271.991 56.5939 274.188 57.1059 276.066 58.1299C277.986 59.1539 279.458 60.4979 280.482 62.1619V57.1059H291.426V92.8179H280.482V87.7619C279.415 89.4259 277.922 90.7699 276.002 91.7939C274.124 92.8179 271.927 93.3299 269.41 93.3299C266.508 93.3299 263.863 92.5832 261.474 91.0899C259.084 89.5539 257.186 87.3992 255.778 84.6259C254.412 81.8099 253.73 78.5672 253.73 74.8979ZM280.482 74.9619C280.482 72.2312 279.714 70.0766 278.178 68.4979C276.684 66.9192 274.85 66.1299 272.674 66.1299C270.498 66.1299 268.642 66.9192 267.106 68.4979C265.612 70.0339 264.866 72.1672 264.866 74.8979C264.866 77.6286 265.612 79.8046 267.106 81.4259C268.642 83.0046 270.498 83.7939 272.674 83.7939C274.85 83.7939 276.684 83.0046 278.178 81.4259C279.714 79.8472 280.482 77.6926 280.482 74.9619ZM321.103 56.7219C325.284 56.7219 328.612 58.0872 331.087 60.8179C333.604 63.5059 334.863 67.2179 334.863 71.9539V92.8179H323.983V73.4259C323.983 71.0366 323.364 69.1806 322.127 67.8579C320.89 66.5352 319.226 65.8739 317.135 65.8739C315.044 65.8739 313.38 66.5352 312.143 67.8579C310.906 69.1806 310.287 71.0366 310.287 73.4259V92.8179H299.343V57.1059H310.287V61.8419C311.396 60.2632 312.89 59.0259 314.767 58.1299C316.644 57.1912 318.756 56.7219 321.103 56.7219ZM358.724 93.2659C355.439 93.2659 352.495 92.7326 349.892 91.6659C347.289 90.5992 345.199 89.0206 343.62 86.9299C342.084 84.8392 341.273 82.3219 341.188 79.3779H352.836C353.007 81.0419 353.583 82.3219 354.564 83.2179C355.545 84.0712 356.825 84.4979 358.404 84.4979C360.025 84.4979 361.305 84.1352 362.244 83.4099C363.183 82.6419 363.652 81.5966 363.652 80.2739C363.652 79.1646 363.268 78.2472 362.5 77.5219C361.775 76.7966 360.857 76.1992 359.748 75.7299C358.681 75.2606 357.145 74.7272 355.14 74.1299C352.239 73.2339 349.871 72.3379 348.036 71.4419C346.201 70.5459 344.623 69.2232 343.3 67.4739C341.977 65.7246 341.316 63.4419 341.316 60.6259C341.316 56.4446 342.831 53.1806 345.86 50.8339C348.889 48.4446 352.836 47.2499 357.7 47.2499C362.649 47.2499 366.639 48.4446 369.668 50.8339C372.697 53.1806 374.319 56.4659 374.532 60.6899H362.692C362.607 59.2392 362.073 58.1086 361.092 57.2979C360.111 56.4446 358.852 56.0179 357.316 56.0179C355.993 56.0179 354.927 56.3806 354.116 57.1059C353.305 57.7886 352.9 58.7912 352.9 60.1139C352.9 61.5646 353.583 62.6952 354.948 63.5059C356.313 64.3166 358.447 65.1912 361.348 66.1299C364.249 67.1112 366.596 68.0499 368.388 68.9459C370.223 69.8419 371.801 71.1432 373.124 72.8499C374.447 74.5566 375.108 76.7539 375.108 79.4419C375.108 82.0019 374.447 84.3272 373.124 86.4179C371.844 88.5086 369.967 90.1726 367.492 91.4099C365.017 92.6472 362.095 93.2659 358.724 93.2659ZM392.787 62.1619C393.854 60.4979 395.326 59.1539 397.203 58.1299C399.08 57.1059 401.278 56.5939 403.795 56.5939C406.739 56.5939 409.406 57.3406 411.795 58.8339C414.184 60.3272 416.062 62.4606 417.427 65.2339C418.835 68.0072 419.539 71.2286 419.539 74.8979C419.539 78.5672 418.835 81.8099 417.427 84.6259C416.062 87.3992 414.184 89.5539 411.795 91.0899C409.406 92.5832 406.739 93.3299 403.795 93.3299C401.32 93.3299 399.123 92.8179 397.203 91.7939C395.326 90.7699 393.854 89.4472 392.787 87.8259V109.842H381.843V57.1059H392.787V62.1619ZM408.403 74.8979C408.403 72.1672 407.635 70.0339 406.099 68.4979C404.606 66.9192 402.75 66.1299 400.531 66.1299C398.355 66.1299 396.499 66.9192 394.963 68.4979C393.47 70.0766 392.723 72.2312 392.723 74.9619C392.723 77.6926 393.47 79.8472 394.963 81.4259C396.499 83.0046 398.355 83.7939 400.531 83.7939C402.707 83.7939 404.563 83.0046 406.099 81.4259C407.635 79.8046 408.403 77.6286 408.403 74.8979ZM447.233 56.7219C451.329 56.7219 454.614 58.0872 457.089 60.8179C459.563 63.5059 460.801 67.2179 460.801 71.9539V92.8179H449.921V73.4259C449.921 71.0366 449.302 69.1806 448.065 67.8579C446.827 66.5352 445.163 65.8739 443.073 65.8739C440.982 65.8739 439.318 66.5352 438.081 67.8579C436.843 69.1806 436.225 71.0366 436.225 73.4259V92.8179H425.281V45.4579H436.225V61.9059C437.334 60.3272 438.849 59.0686 440.769 58.1299C442.689 57.1912 444.843 56.7219 447.233 56.7219ZM502.069 74.3859C502.069 75.4099 502.006 76.4766 501.878 77.5859H477.11C477.28 79.8046 477.984 81.5112 479.222 82.7059C480.502 83.8579 482.059 84.4339 483.894 84.4339C486.624 84.4339 488.523 83.2819 489.59 80.9779H501.238C500.64 83.3246 499.552 85.4366 497.974 87.3139C496.438 89.1912 494.496 90.6632 492.15 91.7299C489.803 92.7966 487.179 93.3299 484.278 93.3299C480.779 93.3299 477.664 92.5832 474.934 91.0899C472.203 89.5966 470.07 87.4632 468.534 84.6899C466.998 81.9166 466.23 78.6739 466.23 74.9619C466.23 71.2499 466.976 68.0072 468.47 65.2339C470.006 62.4606 472.139 60.3272 474.87 58.8339C477.6 57.3406 480.736 56.5939 484.278 56.5939C487.734 56.5939 490.806 57.3192 493.494 58.7699C496.182 60.2206 498.272 62.2899 499.766 64.9779C501.302 67.6659 502.069 70.8019 502.069 74.3859ZM490.87 71.5059C490.87 69.6286 490.23 68.1352 488.95 67.0259C487.67 65.9166 486.07 65.3619 484.15 65.3619C482.315 65.3619 480.758 65.8952 479.478 66.9619C478.24 68.0286 477.472 69.5432 477.174 71.5059H490.87ZM518.787 63.0579C520.067 61.0952 521.667 59.5592 523.587 58.4499C525.507 57.2979 527.64 56.7219 529.987 56.7219V68.3059H526.979C524.248 68.3059 522.2 68.9032 520.835 70.0979C519.47 71.2499 518.787 73.2979 518.787 76.2419V92.8179H507.843V57.1059H518.787V63.0579ZM568.882 74.3859C568.882 75.4099 568.818 76.4766 568.69 77.5859H543.922C544.093 79.8046 544.797 81.5112 546.034 82.7059C547.314 83.8579 548.871 84.4339 550.706 84.4339C553.437 84.4339 555.335 83.2819 556.402 80.9779H568.05C567.453 83.3246 566.365 85.4366 564.786 87.3139C563.25 89.1912 561.309 90.6632 558.962 91.7299C556.615 92.7966 553.991 93.3299 551.09 93.3299C547.591 93.3299 544.477 92.5832 541.746 91.0899C539.015 89.5966 536.882 87.4632 535.346 84.6899C533.81 81.9166 533.042 78.6739 533.042 74.9619C533.042 71.2499 533.789 68.0072 535.282 65.2339C536.818 62.4606 538.951 60.3272 541.682 58.8339C544.413 57.3406 547.549 56.5939 551.09 56.5939C554.546 56.5939 557.618 57.3192 560.306 58.7699C562.994 60.2206 565.085 62.2899 566.578 64.9779C568.114 67.6659 568.882 70.8019 568.882 74.3859ZM557.682 71.5059C557.682 69.6286 557.042 68.1352 555.762 67.0259C554.482 65.9166 552.882 65.3619 550.962 65.3619C549.127 65.3619 547.57 65.8952 546.29 66.9619C545.053 68.0286 544.285 69.5432 543.986 71.5059H557.682Z" fill="white"/>
</svg>
