<svg width="40" height="49" viewBox="0 0 40 49" fill="none" xmlns="http://www.w3.org/2000/svg">
<path d="M31.3834 8.50451C33.8056 11.455 36.6776 13.989 39.9302 16.0718C39.9302 14.5444 39.9302 12.9824 39.9302 11.455C38.0616 9.893 36.2969 8.12268 34.7398 6.24823C33.3904 4.61676 32.1793 2.88115 31.1412 1.04141C29.6187 0.763713 28.027 0.520728 26.3315 0.347168C27.681 3.26298 29.3419 6.00524 31.3834 8.50451Z" fill="white"/>
<path d="M11.4187 10.4136C8.2699 14.2667 4.42907 17.4255 0 19.8553V22.2852C3.52941 23.9861 8.3737 27.0407 12.5952 32.1781C17.474 38.1486 19.5156 44.4662 20.3806 48.8399C20.519 48.8399 20.6228 48.8399 20.7612 48.8399C21.5917 44.4662 23.6332 38.1486 28.5467 32.1781C31.6955 28.3251 35.5363 25.201 40 22.8753C40 21.7645 40 20.6537 40 19.5429C35.7785 17.1478 32.1107 14.0931 29.1003 10.4136C26.5398 7.28954 24.4983 3.81833 23.0104 0.0694242C21.9723 0.0347121 20.8651 0 19.7578 0C18.9965 0 18.2353 0.0347121 17.5086 0.0694242C16.0208 3.81833 13.9792 7.28954 11.4187 10.4136Z" fill="white"/>
<path d="M37.0935 4.30412C37.9931 5.38019 38.9274 6.42156 39.9655 7.3935C39.9655 6.00501 39.9655 4.65124 39.9655 3.26275C38.616 2.81149 37.0589 2.32553 35.2942 1.87427C35.8478 2.74207 36.4361 3.54045 37.0935 4.30412Z" fill="white"/>
<path d="M39.8963 30.3034C39.9309 29.8174 39.9655 29.2968 39.9655 28.8108C39.9655 27.9777 39.9655 27.1446 39.9655 26.3115C36.4707 28.3595 33.3911 30.9629 30.8305 34.087C26.6783 39.155 24.7751 44.5354 23.8755 48.4579C25.1558 48.2149 26.4014 47.833 27.5779 47.3471L27.7163 46.9305C29.1696 42.9733 31.2111 39.3286 33.8755 36.1003C35.6402 33.9829 37.6817 32.0043 39.8963 30.3034Z" fill="white"/>
<path d="M10.2768 34.0869C6.88581 29.9562 3.07958 27.318 0 25.6519V28.8107C0 29.0189 0 29.2272 0 29.4355C2.69896 31.3446 5.12111 33.6009 7.19723 36.1349C10 39.5367 12.1453 43.3897 13.564 47.5899L13.6678 47.8676C14.8097 48.2494 16.0208 48.5271 17.2664 48.7007C16.4014 44.6741 14.4983 39.2243 10.2768 34.0869Z" fill="white"/>
<path d="M3.42561 4.33847C4.11765 3.50538 4.74048 2.63758 5.36332 1.76978C3.3218 2.22103 1.52249 2.77643 0 3.29711V7.94853C1.24567 6.83775 2.38754 5.62282 3.42561 4.33847Z" fill="white"/>
<path d="M4.91364 38.0095C3.63336 36.4127 2.18007 34.9548 0.588379 33.6357C1.90326 38.8773 5.25966 43.3204 9.79253 46.028C8.54685 43.1469 6.88596 40.474 4.91364 38.0095Z" fill="white"/>
<path d="M35.5708 38.0095C36.8511 36.4127 38.3044 34.9548 39.8961 33.6357C38.5812 38.8773 35.2248 43.3204 30.6919 46.028C31.9376 43.1469 33.5639 40.474 35.5708 38.0095Z" fill="white"/>
<path d="M0 11.9059V16.4185C3.49481 14.301 6.53979 11.6282 9.13494 8.50411C11.1765 6.00484 12.872 3.22787 14.1868 0.277344C12.4913 0.450904 10.8996 0.659177 9.41176 0.902162C8.3391 2.77662 7.09342 4.58164 5.74394 6.21311C4.04844 8.29584 2.11073 10.205 0 11.9059Z" fill="white"/>
</svg>
