<svg width="50" height="50" viewBox="0 0 50 50" fill="none" xmlns="http://www.w3.org/2000/svg">
<path d="M21.0729 45.4396C22.3354 46.4812 23.6521 47.4333 25 48.3625C26.3508 47.4456 27.6611 46.4704 28.9271 45.4396C31.0375 43.7067 33.0236 41.8278 34.8708 39.8166C39.1292 35.1604 43.75 28.4104 43.75 20.8333C43.75 18.371 43.265 15.9329 42.3227 13.658C41.3805 11.3831 39.9993 9.31616 38.2583 7.57506C36.5172 5.83396 34.4502 4.45285 32.1753 3.51057C29.9005 2.5683 27.4623 2.08331 25 2.08331C22.5377 2.08331 20.0995 2.5683 17.8247 3.51057C15.5498 4.45285 13.4828 5.83396 11.7417 7.57506C10.0006 9.31616 8.61953 11.3831 7.67726 13.658C6.73498 15.9329 6.25 18.371 6.25 20.8333C6.25 28.4104 10.8708 35.1583 15.1292 39.8166C16.9763 41.8285 18.9624 43.706 21.0729 45.4396ZM25 27.6041C23.2043 27.6041 21.4821 26.8908 20.2123 25.621C18.9425 24.3512 18.2292 22.629 18.2292 20.8333C18.2292 19.0376 18.9425 17.3154 20.2123 16.0456C21.4821 14.7758 23.2043 14.0625 25 14.0625C26.7957 14.0625 28.5179 14.7758 29.7877 16.0456C31.0575 17.3154 31.7708 19.0376 31.7708 20.8333C31.7708 22.629 31.0575 24.3512 29.7877 25.621C28.5179 26.8908 26.7957 27.6041 25 27.6041Z" fill="#3466AF"/>
</svg>
